<svg xmlns="http://www.w3.org/2000/svg" viewBox="0 0 24 24" fill="#e0e0e0" width="48px" height="48px"><path d="M0 0h24v24H0z" fill="none"/><path d="M12 2C6.48 2 2 6.48 2 12s4.48 10 10 10 10-4.48 10-10S17.52 2 12 2zm0 18c-4.41 0-8-3.59-8-8s3.59-8 8-8 8 3.59 8 8-3.59 8-8 8zm-2.5-11.5c-.83 0-1.5.67-1.5 1.5s.67 1.5 1.5 1.5S11 11.33 11 10.5s-.67-1.5-1.5-1.5zm5 0c-.83 0-1.5.67-1.5 1.5s.67 1.5 1.5 1.5S16 11.33 16 10.5s-.67-1.5-1.5-1.5zM12 14c-2.33 0-4.31 1.46-5.11 3.5h10.22c-.8-2.04-2.78-3.5-5.11-3.5z"/></svg>
