<svg xmlns="http://www.w3.org/2000/svg" viewBox="0 0 24 24" fill="#e0e0e0" width="48px" height="48px"><path d="M0 0h24v24H0z" fill="none"/><path d="M12 2C6.48 2 2 6.48 2 12s4.48 10 10 10 10-4.48 10-10S17.52 2 12 2zm0 14.5c-2.49 0-4.5-2.01-4.5-4.5S9.51 7.5 12 7.5s4.5 2.01 4.5 4.5-2.01 4.5-4.5 4.5zm5.5-4.5c0 .59-.13 1.15-.36 1.66l-1.47-1.47C15.89 9.94 16 9.72 16 9.5c0-2.21-1.79-4-4-4-.22 0-.44.01-.66.04L9.87 4.07C10.5 4.02 11.23 4 12 4c3.31 0 6 2.69 6 6zM4.93 19.07C3.13 17.27 2 14.76 2 12c0-1.01.15-1.97.42-2.88L5.1 11.8c-.08.23-.1.46-.1.7 0 2.21 1.79 4 4 4 .24 0 .47-.02.7-.08l2.68 2.68C10.95 18.96 10.01 19.1 9 19.1c-1.76 0-3.36-.61-4.65-1.62l-.42.42z"/></svg>
